<svg xmlns="http://www.w3.org/2000/svg" xmlns:xlink="http://www.w3.org/1999/xlink" width="43" height="12" viewBox="0 0 43 12"><defs><path id="ykj0a" d="M363.528 1199.3c-.395-.4-1.052-.4-1.461 0a.998.998 0 0 0 0 1.42l4.41 3.268h-38.454a1.009 1.009 0 0 0-1.023 1.005 1.02 1.02 0 0 0 1.023 1.018h38.454l-4.41 3.255a1.015 1.015 0 0 0 0 1.433 1.038 1.038 0 0 0 1.461 0l6.165-4.99a.974.974 0 0 0 0-1.418z"/></defs><g><g transform="translate(-327 -1199)"><use fill="#283235" xlink:href="#ykj0a"/></g></g></svg>