<svg xmlns="http://www.w3.org/2000/svg" xmlns:xlink="http://www.w3.org/1999/xlink" width="34" height="34" viewBox="0 0 34 34"><defs><path id="hdmva" d="M1140 116.045v6.227a2.731 2.731 0 0 1-2.728 2.728c-17.244 0-31.272-14.028-31.272-31.272a2.731 2.731 0 0 1 2.728-2.728h6.244a2.731 2.731 0 0 1 2.728 2.728c0 2.083.327 4.125.97 6.073a2.748 2.748 0 0 1-.676 2.784l-2.801 3.723c2.334 4.4 5.065 7.13 9.498 9.497l3.823-2.886c.631-.643 1.73-.897 2.695-.567 1.937.64 3.981.965 6.063.965a2.731 2.731 0 0 1 2.728 2.728zm-1.889 0a.84.84 0 0 0-.84-.839c-2.283 0-4.525-.358-6.664-1.064a.831.831 0 0 0-.856.2l-4.398 3.331a.94.94 0 0 1-1 .087c-5.245-2.688-8.465-5.908-11.115-11.116a.945.945 0 0 1 .089-.997l3.246-4.3c.318-.33.397-.655.3-.968a21.181 21.181 0 0 1-1.061-6.65.84.84 0 0 0-.84-.84h-6.244a.84.84 0 0 0-.84.84c0 16.202 13.182 29.382 29.384 29.382a.84.84 0 0 0 .839-.84zM1123 102.333a1.889 1.889 0 1 1 0 3.778 1.889 1.889 0 0 1 0-3.778zm7.555 0a1.889 1.889 0 1 1 0 3.778 1.889 1.889 0 0 1 0-3.778zm7.556 0a1.889 1.889 0 1 1 0 3.778 1.889 1.889 0 0 1 0-3.778z"/></defs><g><g transform="translate(-1106 -91)"><use fill="#e0542a" xlink:href="#hdmva"/></g></g></svg>