<svg xmlns="http://www.w3.org/2000/svg" xmlns:xlink="http://www.w3.org/1999/xlink" width="97" height="94" viewBox="0 0 97 94"><defs><path id="fs0ra" d="M762 2201.697c0 12.013 7.968 21.145 15.331 29.552 7.363 8.407 19.072 10.946 32.023 2.717 12.95-8.228 32.493-22.317 29.297-35.666-3.195-13.349-17.419-34.274-29.978-33.288-11.608.91-12.852 1.91-24.529 10.53-11.676 8.619-22.143 14.141-22.143 26.155z"/><path id="fs0re" d="M811.394 2198.449a.989.989 0 0 0-1.338.3.924.924 0 0 0 .31 1.297c1.06.64 1.692 1.744 1.692 2.954 0 1.21-.633 2.314-1.692 2.954l-15.93 9.626a3.646 3.646 0 0 1-3.645.09c-1.158-.623-1.849-1.761-1.849-3.044v-19.252c0-1.283.691-2.42 1.85-3.044a3.645 3.645 0 0 1 3.643.09l9.274 5.604a.99.99 0 0 0 1.338-.301.924.924 0 0 0-.31-1.297l-9.274-5.603a5.617 5.617 0 0 0-5.614-.138c-1.784.959-2.85 2.712-2.85 4.69v19.25c0 1.978 1.066 3.731 2.85 4.69a5.67 5.67 0 0 0 2.69.685c1.01 0 2.018-.275 2.924-.823l15.931-9.626c1.632-.986 2.606-2.687 2.606-4.55 0-1.865-.974-3.566-2.606-4.552z"/><mask id="fs0rc" width="2" height="2" x="-1" y="-1"><path fill="#fff" d="M762 2165h77v74h-77z"/><use xlink:href="#fs0ra"/></mask><filter id="fs0rb" width="121" height="125" x="740" y="2143" filterUnits="userSpaceOnUse"><feOffset dy="7" in="SourceGraphic" result="FeOffset1041Out"/><feGaussianBlur in="FeOffset1041Out" result="FeGaussianBlur1042Out" stdDeviation="4.8 4.8"/></filter><linearGradient id="fs0rd" x1="839" x2="762" y1="2201.98" y2="2202" gradientUnits="userSpaceOnUse"><stop offset="0" stop-color="#ff754f"/><stop offset="1" stop-color="#df5329"/></linearGradient></defs><g><g transform="translate(-752 -2162)"><g filter="url(#fs0rb)"><use fill="none" stroke-opacity=".35" stroke-width="0" mask="url(&quot;#fs0rc&quot;)" xlink:href="#fs0ra"/><use fill="#df5329" fill-opacity=".35" xlink:href="#fs0ra"/></g><use fill="#e0542a" xlink:href="#fs0ra"/><use fill="url(#fs0rd)" xlink:href="#fs0ra"/></g><g transform="translate(-752 -2162)"><use fill="#fff" xlink:href="#fs0re"/></g></g></svg>